<svg width="100" height="100" viewBox="0 0 100 100" fill="none" xmlns="http://www.w3.org/2000/svg">
<path d="M49.9993 100C24.5827 100 4.16602 79.5833 4.16602 54.1667C4.16602 30.4167 22.4993 10.8333 45.8327 8.33333V0H49.9993C67.0827 0 82.916 7.91667 93.3327 21.6667L95.8327 25L89.166 30C93.3327 37.5 95.8327 45.4167 95.8327 54.1667C95.8327 79.5833 75.416 100 49.9993 100ZM45.8327 17.0833C27.0827 19.1667 12.4993 35 12.4993 54.1667C12.4993 75 29.166 91.6667 49.9993 91.6667C70.8327 91.6667 87.4993 75 87.4993 54.1667C87.4993 47.5 85.8327 40.8333 82.4993 35L45.8327 62.5V17.0833ZM54.166 8.33333V45.8333L84.166 23.3333C76.2493 15 65.416 9.58333 54.166 8.33333Z" fill="#4189A3"/>
</svg>
