<svg width="23" height="28" viewBox="0 0 23 28" fill="none" xmlns="http://www.w3.org/2000/svg">
<path d="M11.0438 27.8419H20.3562C20.8169 27.8419 21.2588 27.6591 21.5846 27.3337C21.9104 27.0083 22.0935 26.567 22.0935 26.1068V1.73503C22.0935 1.50706 22.0485 1.28133 21.9611 1.07073C21.8737 0.86013 21.7456 0.668797 21.5841 0.507666C21.4226 0.346534 21.2309 0.218763 21.02 0.131655C20.809 0.0445467 20.583 -0.000190321 20.3547 6.08567e-07H7.94748V0.573985C7.9542 0.634787 7.9576 0.695908 7.95768 0.757079V5.5088C7.95729 6.15653 7.69946 6.77761 7.24084 7.23562C6.78222 7.69364 6.16032 7.95112 5.51174 7.9515H0.755167C0.705696 7.9515 0.653316 7.9515 0.609664 7.9515H0V26.1156C0 26.5757 0.183042 27.017 0.508855 27.3424C0.834668 27.6678 1.27656 27.8506 1.73733 27.8506H11.0497L11.0438 27.8419ZM11.3945 21.9465H5.32548C5.10783 21.9465 4.8991 21.8602 4.7452 21.7065C4.5913 21.5528 4.50484 21.3443 4.50484 21.127C4.50484 20.9096 4.5913 20.7012 4.7452 20.5475C4.8991 20.3938 5.10783 20.3074 5.32548 20.3074H11.3989C11.6165 20.3074 11.8252 20.3938 11.9791 20.5475C12.133 20.7012 12.2195 20.9096 12.2195 21.127C12.2195 21.3443 12.133 21.5528 11.9791 21.7065C11.8252 21.8602 11.6165 21.9465 11.3989 21.9465H11.3945ZM17.4679 17.763H5.32548C5.10783 17.763 4.8991 17.6767 4.7452 17.523C4.5913 17.3693 4.50484 17.1608 4.50484 16.9434C4.50484 16.7261 4.5913 16.5176 4.7452 16.3639C4.8991 16.2102 5.10783 16.1239 5.32548 16.1239H17.4693C17.687 16.1239 17.8957 16.2102 18.0496 16.3639C18.2035 16.5176 18.29 16.7261 18.29 16.9434C18.29 17.1608 18.2035 17.3693 18.0496 17.523C17.8957 17.6767 17.687 17.763 17.4693 17.763H17.4679ZM5.32548 11.6817H17.4693C17.687 11.6817 17.8957 11.768 18.0496 11.9217C18.2035 12.0754 18.29 12.2839 18.29 12.5012C18.29 12.7186 18.2035 12.9271 18.0496 13.0808C17.8957 13.2345 17.687 13.3208 17.4693 13.3208H5.32548C5.10783 13.3208 4.8991 13.2345 4.7452 13.0808C4.5913 12.9271 4.50484 12.7186 4.50484 12.5012C4.50484 12.2839 4.5913 12.0754 4.7452 11.9217C4.8991 11.768 5.10783 11.6817 5.32548 11.6817Z" fill="white"/>
<path d="M0.755297 6.96768H5.52495C5.90733 6.96501 6.27328 6.81213 6.54367 6.5421C6.81406 6.27207 6.96715 5.9066 6.96981 5.52472V0.752661C6.96982 0.656633 6.95077 0.561556 6.91375 0.472929C6.87674 0.384301 6.82249 0.303881 6.75416 0.236318C6.68583 0.168754 6.60477 0.115388 6.51567 0.0793052C6.42656 0.0432222 6.33117 0.0251381 6.23502 0.0260983C6.13946 0.0259921 6.04486 0.0451089 5.95687 0.0823082C5.86887 0.119507 5.78927 0.174027 5.72283 0.242614L0.237295 5.7209C0.133066 5.82236 0.0617001 5.95271 0.0324344 6.0951C0.00316864 6.23749 0.0173501 6.38537 0.0731312 6.51963C0.128912 6.65389 0.223734 6.76836 0.345343 6.84823C0.466952 6.9281 0.60976 6.96971 0.755297 6.96768Z" fill="white"/>
</svg>
