<svg width="100" height="100" viewBox="0 0 100 100" fill="none" xmlns="http://www.w3.org/2000/svg">
<path d="M40.625 0C18.2617 0 0 18.2617 0 40.625C0 62.9883 18.2617 81.25 40.625 81.25C41.6748 81.25 42.7246 81.2012 43.75 81.1279V68.5791C42.7246 68.7012 41.6748 68.75 40.625 68.75C25.0244 68.75 12.5 56.2256 12.5 40.625C12.5 25.0244 25.0244 12.5 40.625 12.5C56.2256 12.5 68.75 25.0244 68.75 40.625C68.75 41.6748 68.7012 42.7246 68.5791 43.75H81.1279C81.2012 42.7246 81.25 41.6748 81.25 40.625C81.25 18.2617 62.9883 0 40.625 0ZM40.625 18.75C38.8916 18.75 37.5 20.1416 37.5 21.875V37.5H28.125C26.3916 37.5 25 38.8916 25 40.625C25 42.3584 26.3916 43.75 28.125 43.75H40.625C42.3584 43.75 43.75 42.3584 43.75 40.625V21.875C43.75 20.1416 42.3584 18.75 40.625 18.75ZM68.75 50V68.75H50V81.25H68.75V100H81.25V81.25H100V68.75H81.25V50H68.75Z" fill="#6565FF"/>
</svg>
