<svg width="100" height="88" viewBox="0 0 100 88" fill="none" xmlns="http://www.w3.org/2000/svg">
<path d="M5.74414 65.138V85.1915C5.74414 86.3628 6.69365 87.3121 7.86477 87.3121H46.2849C45.9523 86.603 45.7654 85.8125 45.7654 84.9788V65.138H5.74414Z" fill="#41A34F"/>
<path d="M3.18094 61.8498H5.74499H45.7661V60.0225V57.4334C45.7661 57.4091 45.7668 57.3851 45.767 57.3608C45.7784 55.7472 46.1699 54.2223 46.8567 52.8717C47.1532 52.289 47.5042 51.7385 47.9035 51.2276C48.3784 50.6202 48.9211 50.0683 49.52 49.5834C51.2548 48.1787 53.4625 47.3358 55.8635 47.3358H58.2551V42.7433C58.2551 39.2606 55.4318 36.4373 51.9491 36.4373H46.2436C45.1299 36.4373 44.1624 37.2038 43.9079 38.2881L41.2557 49.5835L40.8695 51.2277L40.5962 52.3916C40.558 52.5547 40.513 52.7149 40.4614 52.8717H38.703C38.6836 52.3216 38.6276 51.7725 38.5358 51.2276C38.5201 51.133 38.5033 51.039 38.4853 50.9449L38.1327 49.5834L36.0575 41.5736L37.7137 37.9184C38.0281 37.2244 37.5208 36.4373 36.7588 36.4373H33.2041C32.4422 36.4373 31.9347 37.2244 32.2492 37.9184L33.9054 41.5736L31.7516 49.5834L31.4244 50.8004C31.396 50.9424 31.3707 51.0849 31.3472 51.2276C31.2573 51.7726 31.203 52.3215 31.1853 52.8717H29.5015C29.4502 52.7148 29.4051 52.5547 29.3667 52.3916L29.0934 51.2277L28.7073 49.5834L26.0552 38.2884C25.8006 37.204 24.8333 36.4376 23.7194 36.4376H18.0141C14.5314 36.4376 11.7081 39.2609 11.7081 42.7436V49.584V51.2281V52.8723H3.18094C1.42421 52.8723 0 54.2964 0 56.0532V58.6694C0 60.4258 1.42421 61.8498 3.18094 61.8498Z" fill="#41A34F"/>
<path d="M34.981 33.0295C42.7973 33.0295 49.1337 26.6931 49.1337 18.8768V3.83379C49.1337 1.88377 47.3777 0.403993 45.4559 0.734174C41.2914 1.44957 31.7949 3.34466 25.8862 4.53688C22.9437 5.13055 20.8281 7.71633 20.8281 10.7182V18.8769C20.8282 26.6932 27.1647 33.0295 34.981 33.0295Z" fill="#41A34F"/>
<path d="M55.8641 50.5169C54.7672 50.5169 53.7307 50.7733 52.8091 51.2276C51.9903 51.6315 51.2636 52.1927 50.6672 52.8718C49.6122 54.0726 48.9669 55.6411 48.9491 57.3608C48.9489 57.3851 48.9473 57.409 48.9473 57.4334V60.0225V61.8498V63.4939V65.138V84.9788C48.9473 86.2675 49.992 87.3121 51.2805 87.3121H86.704H97.6673C98.9559 87.3121 100.001 86.2675 100.001 84.9788V57.4334C100.001 54.0866 97.6231 51.295 94.4648 50.6551C94.0187 50.5647 93.557 50.5169 93.0842 50.5169H58.2556H55.8641Z" fill="#41A34F"/>
<path d="M74.4743 46.7791C83.0473 46.7791 89.9972 39.8292 89.9972 31.2561V22.3075C89.9972 19.015 87.6766 16.1789 84.4495 15.5277C77.9685 14.2202 67.5529 12.1416 62.9851 11.3569C62.7859 11.3226 62.5883 11.3062 62.3938 11.3062C60.5304 11.3062 58.9512 12.8199 58.9512 14.7567V31.2561C58.9513 39.8292 65.9011 46.7791 74.4743 46.7791Z" fill="#41A34F"/>
</svg>
