<svg width="100" height="100" viewBox="0 0 100 100" fill="none" xmlns="http://www.w3.org/2000/svg">
<path d="M96.3801 27.6241L91.6663 26.9994V10.416C91.6663 8.11479 89.8008 6.24937 87.4997 6.24937H4.16658C1.86542 6.24937 0 8.11479 0 10.416V68.749C0 70.3304 0.88105 71.7058 2.17889 72.4117L1.42773 78.0866C1.12597 80.3659 2.72752 82.4589 5.00642 82.7634L86.9475 93.7133C89.212 94.0158 91.2977 92.4387 91.6235 90.1776L99.9568 32.3488C100.288 30.0529 98.6797 27.9287 96.3801 27.6241ZM8.33335 64.5824V31.2492H83.3329V64.5824H8.33335ZM83.3329 14.5827V22.9161H8.33335V14.5827H83.3329ZM10.2351 75.0548L10.5181 72.917H85.6915L83.9636 84.9073L10.2351 75.0548Z" fill="#823434"/>
<path d="M75.0034 43.7492H58.3326C56.0326 43.7492 54.166 45.6116 54.166 47.9116V56.2532C54.166 58.5532 56.0326 60.4157 58.3326 60.4157H75.0034C77.3034 60.4157 79.1659 58.5532 79.1659 56.2532V47.9116C79.1659 45.6116 77.3034 43.7492 75.0034 43.7492Z" fill="#823434"/>
</svg>
