<svg width="33" height="27" viewBox="0 0 33 27" fill="none" xmlns="http://www.w3.org/2000/svg">
<path d="M32.2403 16.2968C32.2354 12.0107 30.542 7.89873 27.5261 4.84933C24.5103 1.79993 20.4141 0.0580148 16.1228 0C11.8314 0.0580148 7.73523 1.79993 4.71936 4.84933C1.70349 7.89873 0.0101136 12.0107 0.00515598 16.2968C-0.0638029 19.0234 0.559926 21.7229 1.81815 24.1437H11.6907C12.2428 24.7755 12.9241 25.2819 13.6885 25.6289C14.453 25.976 15.283 26.1555 16.1228 26.1555C16.9625 26.1555 17.7925 25.976 18.557 25.6289C19.3214 25.2819 20.0027 24.7755 20.5548 24.1437H30.4274C31.6856 21.7229 32.3093 19.0234 32.2403 16.2968ZM28.2113 10.06V12.0726L19.951 19.1144C20.0376 19.4454 20.1047 19.7811 20.1518 20.12C20.1518 20.9158 19.9155 21.6937 19.4728 22.3554C19.0301 23.0171 18.4008 23.5328 17.6646 23.8374C16.9284 24.1419 16.1183 24.2216 15.3367 24.0664C14.5552 23.9111 13.8373 23.5279 13.2738 22.9652C12.7103 22.4024 12.3266 21.6855 12.1711 20.905C12.0157 20.1244 12.0955 19.3154 12.4004 18.5802C12.7054 17.8449 13.2218 17.2165 13.8843 16.7744C14.5469 16.3323 15.3259 16.0963 16.1228 16.0963C16.6833 16.1098 17.2339 16.2473 17.7349 16.4988L26.1961 10.06H28.2113ZM20.1518 4.0237H22.167V6.03628H20.1518V4.0237ZM10.0785 4.0237H12.0937V6.03628H10.0785V4.0237ZM4.03419 20.12H2.0204V18.1088H4.03419V20.12ZM6.04944 12.0726H4.03419V10.06H6.04944V12.0726ZM30.2251 20.12H28.2113V18.1088H30.2266L30.2251 20.12Z" fill="#006F4C"/>
<path d="M18.136 20.1214C18.136 20.5195 18.0177 20.9087 17.7962 21.2397C17.5747 21.5707 17.2599 21.8286 16.8916 21.9809C16.5233 22.1332 16.118 22.173 15.727 22.0952C15.3361 22.0174 14.977 21.8256 14.6952 21.544C14.4134 21.2624 14.2216 20.9036 14.144 20.5131C14.0664 20.1226 14.1065 19.7179 14.2593 19.3502C14.412 18.9825 14.6706 18.6683 15.0022 18.4473C15.3338 18.2263 15.7235 18.1085 16.1222 18.1088C16.6564 18.1092 17.1686 18.3214 17.5462 18.6988C17.9238 19.0762 18.136 19.5879 18.136 20.1214Z" fill="#006F4C"/>
</svg>
