<svg width="30" height="30" viewBox="0 0 30 30" fill="none" xmlns="http://www.w3.org/2000/svg">
<path d="M29.0966 25.8104C29.0949 25.3889 29.0005 24.9729 28.8203 24.5918C28.64 24.2107 28.3782 23.8737 28.0534 23.6046C25.6193 21.6393 22.995 19.9214 20.2194 18.4765L18.1212 29.9053H29.101L29.0966 25.8104ZM8.92965 12.8892C9.06223 13.6664 9.33328 14.4135 9.72992 15.0951V17.067L14.082 20.2391L12.4654 22.3171L13.5654 24.0826L12.6924 29.9024H16.413L15.5603 24.0899L16.6603 22.3244L15.0161 20.242L19.3813 17.0742V15.0994C19.7779 14.4178 20.049 13.6707 20.1816 12.8936C20.4958 12.8674 20.9091 12.4257 21.3572 10.8505C21.9393 8.76816 21.3572 8.40197 20.8276 8.42377C22.1531 2.32064 18.7294 2.3032 18.7294 2.3032C18.4589 1.54352 17.9309 0.902234 17.2368 0.490371C16.5427 0.0785078 15.7263 -0.0779964 14.9288 0.0479545C13.202 0.228045 11.4604 0.211956 9.7372 0C9.73485 0.241602 9.78577 0.480762 9.88636 0.700504C9.98695 0.920245 10.1347 1.11518 10.3192 1.27148C7.24615 3.1373 7.95331 7.25255 8.22686 8.43685C7.70595 8.43685 7.16176 8.83791 7.7365 10.8636C8.18757 12.4213 8.59935 12.8631 8.92965 12.8892ZM8.88163 18.4765C6.10552 19.9144 3.47976 21.6249 1.04327 23.5828C0.718599 23.8517 0.456922 24.1885 0.27667 24.5693C0.0964189 24.9502 0.00197804 25.3659 0 25.7872V29.9039H10.9798L8.88163 18.4765Z" fill="white"/>
</svg>
