<svg width="100" height="100" viewBox="0 0 100 100" fill="none" xmlns="http://www.w3.org/2000/svg">
<g clip-path="url(#clip0_1540_590)">
<mask id="mask0_1540_590" style="mask-type:luminance" maskUnits="userSpaceOnUse" x="0" y="0" width="100" height="100">
<path d="M100 0H0V100H100V0Z" fill="white"/>
</mask>
<g mask="url(#mask0_1540_590)">
<path d="M87.187 10.7782C85.0386 10.7693 82.9346 11.389 81.1341 12.561C79.3336 13.7329 77.9151 15.406 77.0535 17.374C76.1919 19.342 75.9248 21.519 76.285 23.6369C76.6452 25.7549 77.617 27.7212 79.0807 29.2938L65.4651 52.0562C64.5714 51.8136 63.6506 51.6845 62.7245 51.6719C60.8856 51.6847 59.0796 52.1619 57.4745 53.0594L46.937 42.5219C47.8345 40.9179 48.3118 39.113 48.3245 37.2751C48.3347 35.4716 47.9036 33.6931 47.0687 32.0945C46.2339 30.4959 45.0206 29.1258 43.5348 28.1037C42.049 27.0815 40.3356 26.4384 38.5442 26.2303C36.7528 26.0222 34.9377 26.2554 33.2572 26.9097C31.5766 27.564 30.0815 28.6195 28.9025 29.9841C27.7234 31.3487 26.896 32.981 26.4925 34.7388C26.0889 36.4965 26.1216 38.3263 26.5874 40.0686C27.0532 41.8108 27.9382 43.4126 29.1651 44.7344L15.5464 67.4969C14.653 67.2525 13.732 67.1234 12.8058 67.1126C10.2418 67.0911 7.74872 67.954 5.74662 69.5559C3.74451 71.1578 2.35569 73.4007 1.81409 75.907C1.2725 78.4132 1.6112 81.0296 2.7732 83.3152C3.93521 85.6009 5.8495 87.4161 8.19356 88.4553C10.5376 89.4945 13.1682 89.6941 15.6422 89.0204C18.1162 88.3467 20.2823 86.8409 21.7758 84.7567C23.2693 82.6725 23.9988 80.1372 23.8415 77.5779C23.6841 75.0187 22.6496 72.5919 20.912 70.7063L34.5276 47.9438C35.4214 48.1865 36.3422 48.3156 37.2682 48.3281C39.1072 48.3154 40.9131 47.8381 42.5182 46.9406L53.0557 57.4782C52.1583 59.0822 51.681 60.887 51.6682 62.725C51.6575 64.5286 52.0883 66.3074 52.9228 67.9063C53.7573 69.5052 54.9703 70.8757 56.456 71.8982C57.9417 72.9207 59.655 73.5643 61.4465 73.7727C63.238 73.9812 65.0533 73.7481 66.7341 73.094C68.4149 72.4399 69.9102 71.3845 71.0895 70.0199C72.2688 68.6553 73.0964 67.0229 73.5001 65.2651C73.9038 63.5073 73.8712 61.6774 73.4054 59.935C72.9396 58.1926 72.0546 56.5907 70.8276 55.2688L84.4464 32.5032C85.3398 32.7476 86.2608 32.8767 87.187 32.8875C90.1189 32.8875 92.9307 31.7228 95.0039 29.6497C97.077 27.5765 98.2417 24.7648 98.2417 21.8329C98.2417 18.901 97.077 16.0891 95.0039 14.016C92.9307 11.9428 90.1189 10.7782 87.187 10.7782ZM12.812 82.9657C11.8622 82.9651 10.9339 82.6828 10.1444 82.1547C9.35493 81.6265 8.73977 80.8761 8.37671 79.9984C8.01365 79.1207 7.91899 78.1551 8.10467 77.2236C8.29036 76.2921 8.74803 75.4366 9.41989 74.7651C10.0917 74.0937 10.9476 73.6365 11.8792 73.4515C12.8109 73.2664 13.7765 73.3617 14.6539 73.7253C15.5314 74.089 16.2814 74.7046 16.809 75.4944C17.3366 76.2842 17.6182 77.2127 17.6182 78.1625C17.6174 79.4372 17.1109 80.6596 16.2098 81.5612C15.3087 82.4629 14.0867 82.9702 12.812 82.9719V82.9657ZM32.4714 37.2688C32.4714 36.3188 32.753 35.3902 33.2808 34.6003C33.8086 33.8104 34.5588 33.1949 35.4364 32.8313C36.3141 32.4678 37.2798 32.3726 38.2116 32.5579C39.1433 32.7432 39.9991 33.2007 40.6708 33.8724C41.3425 34.5442 41.8 35.4001 41.9853 36.3318C42.1707 37.2635 42.0756 38.2292 41.712 39.1069C41.3485 39.9845 40.7328 40.7347 39.9429 41.2625C39.1531 41.7902 38.2244 42.0719 37.2745 42.0719C36.0019 42.0703 34.7818 41.5646 33.8811 40.6657C32.9804 39.7667 32.4724 38.5476 32.4682 37.2751L32.4714 37.2688ZM62.7308 67.525C61.4565 67.525 60.2343 67.0188 59.3333 66.1178C58.4322 65.2167 57.9261 63.9946 57.9261 62.7203C57.9261 61.446 58.4322 60.224 59.3333 59.323C60.2343 58.4219 61.4565 57.9156 62.7308 57.9156C63.5871 57.9202 64.4262 58.1568 65.1589 58.6001L65.1838 58.6219L65.2589 58.6532C66.1468 59.2018 66.8314 60.0252 67.2087 60.9984C67.5861 61.9715 67.6354 63.0412 67.3494 64.045C67.0634 65.0488 66.4575 65.9318 65.6239 66.5599C64.7903 67.188 63.7745 67.5269 62.7308 67.525ZM87.1932 26.6313C86.3358 26.6272 85.4956 26.3907 84.762 25.9469L84.7401 25.9281L84.6964 25.9125C83.7156 25.3038 82.9881 24.3608 82.6483 23.2577C82.3085 22.1545 82.3792 20.9656 82.8475 19.9106C83.3157 18.8555 84.1499 18.0054 85.1959 17.5173C86.242 17.0292 87.4294 16.936 88.5388 17.255C89.6482 17.5739 90.6047 18.2835 91.2318 19.2526C91.8589 20.2217 92.1142 21.385 91.9506 22.5277C91.787 23.6704 91.2156 24.7153 90.3417 25.4695C89.4679 26.2238 88.3507 26.6364 87.1964 26.6313H87.1932Z" fill="#827A34"/>
</g>
</g>
<defs>
<clipPath id="clip0_1540_590">
<rect width="100" height="100" fill="white"/>
</clipPath>
</defs>
</svg>
