<svg width="30" height="30" viewBox="0 0 30 30" fill="none" xmlns="http://www.w3.org/2000/svg">
<path opacity="0.6" d="M11 18.1566C11 19.7328 12.1976 21.0003 13.6667 21.0003H16.6687C17.9461 21.0003 18.984 19.8953 18.984 18.5141C18.984 17.0353 18.3453 16.4991 17.4032 16.1578L12.5968 14.4516C11.6547 14.1103 11.016 13.5903 11.016 12.0953C11.016 10.7304 12.0539 9.60913 13.3313 9.60913H16.3333C17.8024 9.60913 19 10.8766 19 12.4528" stroke="white" stroke-width="2" stroke-linecap="round" stroke-linejoin="round"/>
<path d="M14.9922 8V22.625" stroke="white" stroke-width="2" stroke-linecap="round" stroke-linejoin="round"/>
<path d="M27.5 15C27.5 21.9 21.9 27.5 15 27.5C8.1 27.5 2.5 21.9 2.5 15C2.5 8.1 8.1 2.5 15 2.5" stroke="white" stroke-width="2" stroke-linecap="round" stroke-linejoin="round"/>
<path d="M21.25 3.75V8.75H26.25" stroke="white" stroke-width="2" stroke-linecap="round" stroke-linejoin="round"/>
<path d="M27.5 2.5L21.25 8.75" stroke="white" stroke-width="2" stroke-linecap="round" stroke-linejoin="round"/>
</svg>
