<svg width="100" height="100" viewBox="0 0 100 100" fill="none" xmlns="http://www.w3.org/2000/svg">
<path d="M82.7387 62.5C82.9817 62.5 83.2224 62.5102 83.4605 62.5302L82.7387 62.5C83.0693 62.5 83.3956 62.5189 83.7168 62.5556C83.874 62.5736 84.031 62.596 84.1866 62.6226C84.2625 62.6356 84.3362 62.6493 84.4097 62.6639C84.5859 62.6989 84.7626 62.7399 84.9372 62.7863C84.978 62.7972 85.0164 62.8077 85.0547 62.8185C88.8625 63.8888 91.6673 67.538 91.6673 71.875C91.6673 77.0527 87.6699 81.25 82.7387 81.25C77.8076 81.25 73.8102 77.0527 73.8102 71.875C73.8102 68.242 75.7783 65.0916 78.6561 63.5353L78.7926 63.463C78.9354 63.389 79.0803 63.3189 79.2273 63.2529L78.6561 63.5353C78.9006 63.4031 79.1516 63.2824 79.4085 63.1738C79.5537 63.1125 79.6998 63.0555 79.8477 63.0024C79.9172 62.9774 79.9881 62.953 80.0594 62.9295C80.1841 62.8883 80.3091 62.8503 80.4351 62.815C80.5322 62.7879 80.6297 62.7625 80.7278 62.7387C80.8716 62.7039 81.0191 62.6724 81.1678 62.6446C81.2305 62.6329 81.2932 62.622 81.356 62.6117C81.5312 62.5832 81.707 62.5601 81.8842 62.5424C81.9359 62.5372 81.9875 62.5326 82.0393 62.5283C82.2695 62.5096 82.5031 62.5 82.7387 62.5ZM17.2626 62.5C17.5195 62.5 17.774 62.5114 18.0255 62.5337L17.2626 62.5C17.5881 62.5 17.9096 62.5183 18.2262 62.554C18.3914 62.5726 18.5565 62.5961 18.7201 62.6243C18.8183 62.6412 18.914 62.6595 19.0093 62.6793C19.1645 62.7116 19.3186 62.7483 19.4712 62.789C19.5518 62.8106 19.6305 62.8328 19.7087 62.8562C19.9381 62.9246 20.1665 63.0034 20.3907 63.0915C20.4108 63.0994 20.4318 63.1077 20.4528 63.1162C20.6518 63.1961 20.8464 63.2829 21.0373 63.3766C21.0663 63.3908 21.0949 63.405 21.1235 63.4194C24.1223 64.9327 26.1911 68.1502 26.1911 71.875C26.1911 77.0527 22.1937 81.25 17.2626 81.25C12.3314 81.25 8.33398 77.0527 8.33398 71.875C8.33398 67.2149 11.5721 63.349 15.8147 62.6226C15.8739 62.6125 15.9341 62.6028 15.9946 62.5938C16.0213 62.5898 16.0475 62.586 16.0737 62.5824C16.4623 62.5281 16.8593 62.5 17.2626 62.5ZM64.4166 46.875C65.8034 46.875 66.9277 48.0293 66.9277 49.4531C66.9277 49.8499 66.8404 50.2257 66.6845 50.5615L66.6902 50.5737L53.5997 72.0749C53.3615 72.5836 53.0444 73.046 52.6646 73.4454C51.7526 74.4045 50.4793 75 49.0706 75C46.2968 75 44.0483 72.6915 44.0483 69.8438C44.0483 68.5605 44.5049 67.3867 45.2604 66.4843L45.4608 66.2667L45.4413 66.2492L62.7869 47.4747C63.2361 47.1028 63.8004 46.875 64.4166 46.875ZM62.9526 28.125C75.0564 33.184 83.8362 45.1289 84.9368 59.3537C84.2228 59.215 83.4887 59.1435 82.7387 59.1435C81.2705 59.1435 79.8632 59.4175 78.5607 59.9195C77.6916 48.5402 70.8087 38.9403 61.2512 34.6225C62.1778 32.9976 62.7659 31.1309 62.9151 29.1339L62.9526 28.125ZM38.7234 27.3643C38.7093 27.616 38.7021 27.8696 38.7021 28.125C38.7021 30.2394 39.1931 32.2335 40.0617 33.9884C29.7398 37.9219 22.1702 47.8929 21.2212 59.8395C19.983 59.3882 18.65 59.1435 17.2626 59.1435C16.4337 59.1435 15.6242 59.2309 14.842 59.3972C15.9244 45.1649 24.6993 33.2055 36.8004 28.1061L37.8295 27.6921L38.7234 27.3643ZM50.8274 18.75C55.3677 18.75 59.1165 22.3084 59.6821 26.9141C59.6781 26.9121 59.6808 26.9136 59.6821 26.9141L59.7269 27.3632C59.7461 27.6145 59.7559 27.8685 59.7559 28.125C59.7559 28.38 59.7462 28.6327 59.7272 28.8826L59.7559 28.125C59.7559 28.4666 59.7385 28.804 59.7046 29.1362C59.6878 29.3006 59.6671 29.4629 59.6424 29.6239C59.6278 29.7194 59.6119 29.814 59.5947 29.9081C59.5677 30.0552 59.5373 30.2015 59.5038 30.3465C59.4819 30.4409 59.459 30.5335 59.4348 30.6256C59.2417 31.3602 58.9655 32.0588 58.6175 32.7093C58.5921 32.7568 58.5663 32.804 58.5401 32.851C58.446 33.0199 58.3472 33.1852 58.2437 33.347C58.2211 33.3823 58.1991 33.4162 58.1768 33.45C56.5658 35.8969 53.8749 37.5 50.8274 37.5C47.137 37.5 43.9696 35.1492 42.6093 31.7959C42.5741 31.7063 42.539 31.6162 42.5052 31.5254C42.465 31.4195 42.4278 31.3136 42.3924 31.2069C42.3559 31.0946 42.3204 30.9809 42.287 30.8662C42.1822 30.5075 42.0976 30.1386 42.0344 29.762C42.0232 29.6948 42.0125 29.6265 42.0025 29.5578C41.9341 29.0899 41.8988 28.6118 41.8988 28.125C41.8988 27.5783 41.9434 27.0425 42.0289 26.5214C42.0365 26.4752 42.0443 26.4295 42.0525 26.3839C42.8298 22.0381 46.4629 18.75 50.8274 18.75Z" fill="#006656"/>
</svg>
