<svg width="110" height="110" viewBox="0 0 110 110" fill="none" xmlns="http://www.w3.org/2000/svg">
<path d="M24.582 55.2397C18.3832 53.0342 15.2838 51.931 14.3603 50.2585C13.5601 48.8088 13.5226 47.0585 14.2602 45.5761C15.1113 43.8654 18.1608 42.631 24.2597 40.1625L81.7468 16.8939C87.7533 14.4626 90.7567 13.2469 92.6542 13.8702C94.301 14.4112 95.5926 15.7029 96.1339 17.3497C96.7572 19.2471 95.5413 22.2505 93.1103 28.2572L69.8416 85.7441C67.373 91.8431 66.1387 94.8929 64.4278 95.744C62.9455 96.4815 61.1952 96.4439 59.7455 95.6436C58.073 94.7201 56.9698 91.6208 54.7643 85.4219L48.0112 66.4432C47.5822 65.2373 47.3677 64.6342 47.0171 64.1309C46.7068 63.6845 46.3195 63.2972 45.8731 62.9869C45.3696 62.6363 44.7666 62.4218 43.5606 61.9928L24.582 55.2397Z" stroke="#320052" stroke-width="8" stroke-linecap="round" stroke-linejoin="round"/>
</svg>
