<svg width="34" height="34" viewBox="0 0 34 34" fill="none" xmlns="http://www.w3.org/2000/svg">
<rect x="0.5" y="0.5" width="33" height="33" rx="5.5" fill="black" stroke="#D9D9D9"/>
<g clip-path="url(#clip0_1758_779)">
<path d="M26.1673 10.3333V15.3333M26.1673 15.3333H21.1673M26.1673 15.3333L22.3007 11.7C21.405 10.8039 20.297 10.1494 19.08 9.79732C17.8629 9.4453 16.5766 9.4073 15.3409 9.68689C14.1052 9.96648 12.9605 10.5545 12.0135 11.3962C11.0666 12.2378 10.3483 13.3057 9.92565 14.5M7.83398 23.6667V18.6667M7.83398 18.6667H12.834M7.83398 18.6667L11.7007 22.3C12.5963 23.1961 13.7043 23.8507 14.9213 24.2027C16.1384 24.5547 17.4247 24.5927 18.6604 24.3131C19.8961 24.0335 21.0408 23.4455 21.9878 22.6038C22.9347 21.7622 23.653 20.6944 24.0756 19.5" stroke="white" stroke-width="2" stroke-linecap="round" stroke-linejoin="round"/>
</g>
<defs>
<clipPath id="clip0_1758_779">
<rect width="20" height="20" fill="white" transform="translate(7 7)"/>
</clipPath>
</defs>
</svg>
